<svg xmlns="http://www.w3.org/2000/svg" version="1.1" xmlns:xlink="http://www.w3.org/1999/xlink" width="200" height="200"><svg xmlns="http://www.w3.org/2000/svg" version="1.1" xmlns:xlink="http://www.w3.org/1999/xlink" width="200" height="200"><svg xmlns="http://www.w3.org/2000/svg" version="1.1" xmlns:xlink="http://www.w3.org/1999/xlink" viewBox="0 0 200 200"><rect width="200" height="200" fill="url('#gradient')"></rect><defs><linearGradient id="gradient" gradientTransform="rotate(45 0.5 0.5)"><stop offset="0%" stop-color="#3981f6"></stop><stop offset="100%" stop-color="#3981f6"></stop></linearGradient></defs><g><g fill="#ffa97b" transform="matrix(6.6017191977077365,0,0,6.6017191977077365,9.09479475315969,135.38653575930007)" stroke="#ffffff" stroke-width="0.2"><path d="M14.74-2.64L14.38 3.50L11.30 3.50L11.30 0L3.55 0L3.55 3.49L0.38 3.49L0.14-2.64L1.14-2.64Q1.93-3.16 2.42-4.45Q2.90-5.73 3.11-8.13L3.11-8.13L3.54-14.22L13.22-14.22L13.22-2.64L14.74-2.64ZM5.02-2.64L5.02-2.64L9.80-2.64L9.80-11.57L6.78-11.57L6.51-8.02Q6.22-4.56 5.02-2.64ZM18.53-14.22L21.44-8.05L21.44-8.04L23.79-14.22L27.40-14.22L22.62-2.94Q21.85-1.23 20.88-0.53Q19.92 0.17 18.63 0.21L18.63 0.21L17.94 0.21L17.41 0.19L17.35-2.47Q17.47-2.43 18.04-2.43L18.04-2.43Q18.82-2.43 19.21-2.70Q19.61-2.97 19.85-3.74L19.85-3.74L20.02-4.21L14.88-14.22L18.53-14.22Z"></path></g></g></svg></svg><style>@media (prefers-color-scheme: light) { :root { filter: none; } }
@media (prefers-color-scheme: dark) { :root { filter: none; } }
</style></svg>